<svg xmlns="http://www.w3.org/2000/svg" xmlns:svg="http://www.w3.org/2000/svg" id="svg14" width="193.867" height="193.867" version="1.1" viewBox="0 0 193.867 193.867"><metadata id="metadata20"/><path id="path10" d="m 96.934003,0.05598683 c -47.586,0 -86.164,38.57500117 -86.164,86.16300117 V 107.76 c 0,47.589 38.578,86.163 86.164,86.163 H 183.097 V 86.219988 c 0,-47.59 -38.577,-86.16400117 -86.162997,-86.16400117" style="fill:#1874d5"/><path id="path12" d="M 151.605,159.219 H 121.687 V 91.603988 c 0,-19.135 -15.569,-34.704 -34.704,-34.704 -19.136,0 -34.705,15.569 -34.705,34.704 H 35.524 c 0,-28.374 23.085,-51.458 51.459,-51.458 28.374,0 51.458,23.084 51.458,51.458 V 142.464 h 13.164 z M 101.343,107.76 c 0,7.932 -6.429,14.36 -14.36,14.36 -7.93,0 -14.36,-6.428 -14.36,-14.36 0,-7.930012 6.43,-14.360012 14.36,-14.360012 7.931,0 14.36,6.43 14.36,14.360012 z" style="fill:#fff"/></svg>